<?xml version="1.0" encoding="UTF-8" standalone="no"?>
<!-- Created with Inkscape (http://www.inkscape.org/) -->

<svg
   xmlns:dc="http://purl.org/dc/elements/1.1/"
   xmlns:cc="http://creativecommons.org/ns#"
   xmlns:rdf="http://www.w3.org/1999/02/22-rdf-syntax-ns#"
   xmlns:svg="http://www.w3.org/2000/svg"
   xmlns="http://www.w3.org/2000/svg"
   xmlns:sodipodi="http://sodipodi.sourceforge.net/DTD/sodipodi-0.dtd"
   xmlns:inkscape="http://www.inkscape.org/namespaces/inkscape"
   width="380"
   height="200"
   id="svg6800"
   sodipodi:version="0.32"
   inkscape:version="0.48.1 r9760"
   version="1.0"
   sodipodi:docname="US-UK_Flag.svg"
   inkscape:output_extension="org.inkscape.output.svg.inkscape"
   sodipodi:modified="true"
   style="display:inline"
   inkscape:export-filename="/Users/miialainen/Documents/Word play/Word Play images/US-UK_Flag.png"
   inkscape:export-xdpi="90"
   inkscape:export-ydpi="90">
  <defs
     id="defs6802">
    <inkscape:path-effect
       effect="skeletal"
       id="path-effect3052"
       is_visible="true"
       pattern="m 0,73 c 0,-2.76 2.24,-5 5,-5 2.76,0 5,2.24 5,5 0,2.76 -2.24,5 -5,5 -2.76,0 -5,-2.24 -5,-5 z"
       copytype="single_stretched"
       prop_scale="1"
       scale_y_rel="false"
       spacing="0"
       normal_offset="0"
       tang_offset="0"
       prop_units="false"
       vertical_pattern="false"
       fuse_tolerance="0" />
  </defs>
  <sodipodi:namedview
     id="base"
     pagecolor="#ffffff"
     bordercolor="#666666"
     borderopacity="1.0"
     gridtolerance="10000"
     guidetolerance="10"
     objecttolerance="10"
     inkscape:pageopacity="0.0"
     inkscape:pageshadow="2"
     inkscape:zoom="1.5736842"
     inkscape:cx="178.59511"
     inkscape:cy="139.01367"
     inkscape:document-units="px"
     inkscape:current-layer="layer1"
     showborder="false"
     inkscape:showpageshadow="false"
     height="200px"
     width="380px"
     borderlayer="false"
     inkscape:window-width="1204"
     inkscape:window-height="719"
     inkscape:window-x="120"
     inkscape:window-y="0"
     showgrid="false"
     inkscape:window-maximized="0"
     fit-margin-top="0"
     fit-margin-left="0"
     fit-margin-right="0"
     fit-margin-bottom="0">
    <inkscape:grid
       type="xygrid"
       id="grid3830"
       empspacing="5"
       visible="true"
       enabled="true"
       snapvisiblegridlinesonly="true" />
  </sodipodi:namedview>
  <metadata
     id="metadata6805">
    <rdf:RDF>
      <cc:Work
         rdf:about="">
        <dc:format>image/svg+xml</dc:format>
        <dc:type
           rdf:resource="http://purl.org/dc/dcmitype/StillImage" />
        <dc:title></dc:title>
      </cc:Work>
    </rdf:RDF>
  </metadata>
  <g
     inkscape:groupmode="layer"
     id="layer4"
     inkscape:label="stripes"
     style="display:inline"
     transform="translate(0.5,-0.5)">
    <rect
       style="fill:#bf0a30;fill-opacity:1;fill-rule:evenodd;stroke:none"
       id="rect8767"
       width="379"
       height="16"
       x="0"
       y="184" />
    <rect
       style="fill:#ffffff;fill-opacity:1;fill-rule:evenodd;stroke:none"
       id="rect8769"
       width="379"
       height="16"
       x="0"
       y="168" />
    <rect
       style="fill:#bf0a30;fill-opacity:1;fill-rule:evenodd;stroke:none"
       id="rect8771"
       width="379"
       height="16"
       x="0"
       y="152" />
    <rect
       style="fill:#ffffff;fill-opacity:1;fill-rule:evenodd;stroke:none"
       id="rect8773"
       width="379"
       height="16"
       x="0"
       y="136" />
    <rect
       style="fill:#bf0a30;fill-opacity:1;fill-rule:evenodd;stroke:none"
       id="rect8775"
       width="379"
       height="15"
       x="0"
       y="121" />
    <rect
       style="fill:#ffffff;fill-opacity:1;fill-rule:evenodd;stroke:none"
       id="rect8777"
       width="379"
       height="15"
       x="0"
       y="106" />
    <rect
       style="fill:#bf0a30;fill-opacity:1;fill-rule:evenodd;stroke:none"
       id="rect8779"
       width="379"
       height="15"
       x="0"
       y="91" />
    <rect
       style="fill:#ffffff;fill-opacity:1;fill-rule:evenodd;stroke:none"
       id="rect8781"
       width="379"
       height="15"
       x="0"
       y="76" />
    <rect
       style="fill:#bf0a30;fill-opacity:1;fill-rule:evenodd;stroke:none"
       id="rect8783"
       width="379"
       height="15"
       x="0"
       y="61" />
    <rect
       style="fill:#ffffff;fill-opacity:1;fill-rule:evenodd;stroke:none"
       id="rect8785"
       width="379"
       height="15"
       x="0"
       y="46" />
    <rect
       style="fill:#bf0a30;fill-opacity:1;fill-rule:evenodd;stroke:none"
       id="rect8787"
       width="379"
       height="15"
       x="0"
       y="31" />
    <rect
       style="fill:#ffffff;fill-opacity:1;fill-rule:evenodd;stroke:none"
       id="rect8791"
       width="379"
       height="15"
       x="0"
       y="16" />
    <rect
       style="fill:#bf0a30;fill-opacity:1;fill-rule:evenodd;stroke:none"
       id="rect8793"
       width="379"
       height="15"
       x="0"
       y="1" />
  </g>
  <g
     inkscape:groupmode="layer"
     id="layer5"
     inkscape:label="field"
     style="display:inline"
     transform="translate(0.5,-0.5)">
    <rect
       style="fill:#002868;fill-opacity:1;fill-rule:evenodd;stroke:none"
       id="rect8796"
       width="152"
       height="105"
       x="0"
       y="1" />
  </g>
  <g
     inkscape:groupmode="layer"
     id="layer6"
     inkscape:label="stars"
     style="display:inline"
     transform="translate(0.5,-0.5)">
    <path
       sodipodi:type="star"
       style="fill:#ffffff;fill-opacity:1;fill-rule:evenodd;stroke:none"
       id="path8825"
       sodipodi:sides="5"
       sodipodi:cx="106.33333"
       sodipodi:cy="148"
       sodipodi:r1="6.1463628"
       sodipodi:r2="2.810354"
       sodipodi:arg1="-2.9229237"
       sodipodi:arg2="-2.2946052"
       inkscape:flatsided="false"
       inkscape:rounded="0"
       inkscape:randomized="0"
       d="m 100.33333,146.66667 4.13886,-0.77244 1.27511,-4.01259 2.01361,3.69759 4.21023,-0.0273 -2.89438,3.05767 1.32696,3.99575 -3.80244,-1.80785 -3.39013,2.49677 0.54435,-4.17499 z"
       transform="matrix(1.0486689,0.08995095,-0.08593013,1.0977379,-86.263355,-76.410922)" />
    <path
       sodipodi:type="star"
       style="fill:#ffffff;fill-opacity:1;fill-rule:evenodd;stroke:none"
       id="path8827"
       sodipodi:sides="5"
       sodipodi:cx="106.33333"
       sodipodi:cy="148"
       sodipodi:r1="6.1463628"
       sodipodi:r2="2.810354"
       sodipodi:arg1="-2.9229237"
       sodipodi:arg2="-2.2946052"
       inkscape:flatsided="false"
       inkscape:rounded="0"
       inkscape:randomized="0"
       d="m 100.33333,146.66667 4.13886,-0.77244 1.27511,-4.01259 2.01361,3.69759 4.21023,-0.0273 -2.89438,3.05767 1.32696,3.99575 -3.80244,-1.80785 -3.39013,2.49677 0.54435,-4.17499 z"
       transform="matrix(1.0486689,0.08995095,-0.08593013,1.0977379,-61.263355,-76.410922)" />
    <path
       sodipodi:type="star"
       style="fill:#ffffff;fill-opacity:1;fill-rule:evenodd;stroke:none"
       id="path8829"
       sodipodi:sides="5"
       sodipodi:cx="106.33333"
       sodipodi:cy="148"
       sodipodi:r1="6.1463628"
       sodipodi:r2="2.810354"
       sodipodi:arg1="-2.9229237"
       sodipodi:arg2="-2.2946052"
       inkscape:flatsided="false"
       inkscape:rounded="0"
       inkscape:randomized="0"
       d="m 100.33333,146.66667 4.13886,-0.77244 1.27511,-4.01259 2.01361,3.69759 4.21023,-0.0273 -2.89438,3.05767 1.32696,3.99575 -3.80244,-1.80785 -3.39013,2.49677 0.54435,-4.17499 z"
       transform="matrix(1.0486689,0.08995095,-0.08593013,1.0977379,-35.263355,-76.410922)" />
    <path
       sodipodi:type="star"
       style="fill:#ffffff;fill-opacity:1;fill-rule:evenodd;stroke:none"
       id="path8831"
       sodipodi:sides="5"
       sodipodi:cx="106.33333"
       sodipodi:cy="148"
       sodipodi:r1="6.1463628"
       sodipodi:r2="2.810354"
       sodipodi:arg1="-2.9229237"
       sodipodi:arg2="-2.2946052"
       inkscape:flatsided="false"
       inkscape:rounded="0"
       inkscape:randomized="0"
       d="m 100.33333,146.66667 4.13886,-0.77244 1.27511,-4.01259 2.01361,3.69759 4.21023,-0.0273 -2.89438,3.05767 1.32696,3.99575 -3.80244,-1.80785 -3.39013,2.49677 0.54435,-4.17499 z"
       transform="matrix(1.0486689,0.08995095,-0.08593013,1.0977379,-10.263355,-76.410922)" />
    <path
       sodipodi:type="star"
       style="fill:#ffffff;fill-opacity:1;fill-rule:evenodd;stroke:none"
       id="path8833"
       sodipodi:sides="5"
       sodipodi:cx="106.33333"
       sodipodi:cy="148"
       sodipodi:r1="6.1463628"
       sodipodi:r2="2.810354"
       sodipodi:arg1="-2.9229237"
       sodipodi:arg2="-2.2946052"
       inkscape:flatsided="false"
       inkscape:rounded="0"
       inkscape:randomized="0"
       d="m 100.33333,146.66667 4.13886,-0.77244 1.27511,-4.01259 2.01361,3.69759 4.21023,-0.0273 -2.89438,3.05767 1.32696,3.99575 -3.80244,-1.80785 -3.39013,2.49677 0.54435,-4.17499 z"
       transform="matrix(1.0486689,0.08995095,-0.08593013,1.0977379,14.736645,-76.410922)" />
    <path
       sodipodi:type="star"
       style="fill:#ffffff;fill-opacity:1;fill-rule:evenodd;stroke:none"
       id="path8835"
       sodipodi:sides="5"
       sodipodi:cx="106.33333"
       sodipodi:cy="148"
       sodipodi:r1="6.1463628"
       sodipodi:r2="2.810354"
       sodipodi:arg1="-2.9229237"
       sodipodi:arg2="-2.2946052"
       inkscape:flatsided="false"
       inkscape:rounded="0"
       inkscape:randomized="0"
       d="m 100.33333,146.66667 4.13886,-0.77244 1.27511,-4.01259 2.01361,3.69759 4.21023,-0.0273 -2.89438,3.05767 1.32696,3.99575 -3.80244,-1.80785 -3.39013,2.49677 0.54435,-4.17499 z"
       transform="matrix(1.0486689,0.08995095,-0.08593013,1.0977379,40.736644,-76.410922)" />
    <path
       sodipodi:type="star"
       style="fill:#ffffff;fill-opacity:1;fill-rule:evenodd;stroke:none"
       id="path8837"
       sodipodi:sides="5"
       sodipodi:cx="106.33333"
       sodipodi:cy="148"
       sodipodi:r1="6.1463628"
       sodipodi:r2="2.810354"
       sodipodi:arg1="-2.9229237"
       sodipodi:arg2="-2.2946052"
       inkscape:flatsided="false"
       inkscape:rounded="0"
       inkscape:randomized="0"
       d="m 100.33333,146.66667 4.13886,-0.77244 1.27511,-4.01259 2.01361,3.69759 4.21023,-0.0273 -2.89438,3.05767 1.32696,3.99575 -3.80244,-1.80785 -3.39013,2.49677 0.54435,-4.17499 z"
       transform="matrix(1.0486689,0.08995095,-0.08593013,1.0977379,-73.263353,-86.410922)" />
    <path
       sodipodi:type="star"
       style="fill:#ffffff;fill-opacity:1;fill-rule:evenodd;stroke:none"
       id="path8839"
       sodipodi:sides="5"
       sodipodi:cx="106.33333"
       sodipodi:cy="148"
       sodipodi:r1="6.1463628"
       sodipodi:r2="2.810354"
       sodipodi:arg1="-2.9229237"
       sodipodi:arg2="-2.2946052"
       inkscape:flatsided="false"
       inkscape:rounded="0"
       inkscape:randomized="0"
       d="m 100.33333,146.66667 4.13886,-0.77244 1.27511,-4.01259 2.01361,3.69759 4.21023,-0.0273 -2.89438,3.05767 1.32696,3.99575 -3.80244,-1.80785 -3.39013,2.49677 0.54435,-4.17499 z"
       transform="matrix(1.0486689,0.08995095,-0.08593013,1.0977379,-86.263353,-97.410922)" />
    <path
       sodipodi:type="star"
       style="fill:#ffffff;fill-opacity:1;fill-rule:evenodd;stroke:none"
       id="path8841"
       sodipodi:sides="5"
       sodipodi:cx="106.33333"
       sodipodi:cy="148"
       sodipodi:r1="6.1463628"
       sodipodi:r2="2.810354"
       sodipodi:arg1="-2.9229237"
       sodipodi:arg2="-2.2946052"
       inkscape:flatsided="false"
       inkscape:rounded="0"
       inkscape:randomized="0"
       d="m 100.33333,146.66667 4.13886,-0.77244 1.27511,-4.01259 2.01361,3.69759 4.21023,-0.0273 -2.89438,3.05767 1.32696,3.99575 -3.80244,-1.80785 -3.39013,2.49677 0.54435,-4.17499 z"
       transform="matrix(1.0486689,0.08995095,-0.08593013,1.0977379,-73.263356,-107.41092)" />
    <path
       sodipodi:type="star"
       style="fill:#ffffff;fill-opacity:1;fill-rule:evenodd;stroke:none"
       id="path8843"
       sodipodi:sides="5"
       sodipodi:cx="106.33333"
       sodipodi:cy="148"
       sodipodi:r1="6.1463628"
       sodipodi:r2="2.810354"
       sodipodi:arg1="-2.9229237"
       sodipodi:arg2="-2.2946052"
       inkscape:flatsided="false"
       inkscape:rounded="0"
       inkscape:randomized="0"
       d="m 100.33333,146.66667 4.13886,-0.77244 1.27511,-4.01259 2.01361,3.69759 4.21023,-0.0273 -2.89438,3.05767 1.32696,3.99575 -3.80244,-1.80785 -3.39013,2.49677 0.54435,-4.17499 z"
       transform="matrix(1.0486689,0.08995095,-0.08593013,1.0977379,-86.263356,-118.41092)" />
    <path
       sodipodi:type="star"
       style="fill:#ffffff;fill-opacity:1;fill-rule:evenodd;stroke:none"
       id="path8845"
       sodipodi:sides="5"
       sodipodi:cx="106.33333"
       sodipodi:cy="148"
       sodipodi:r1="6.1463628"
       sodipodi:r2="2.810354"
       sodipodi:arg1="-2.9229237"
       sodipodi:arg2="-2.2946052"
       inkscape:flatsided="false"
       inkscape:rounded="0"
       inkscape:randomized="0"
       d="m 100.33333,146.66667 4.13886,-0.77244 1.27511,-4.01259 2.01361,3.69759 4.21023,-0.0273 -2.89438,3.05767 1.32696,3.99575 -3.80244,-1.80785 -3.39013,2.49677 0.54435,-4.17499 z"
       transform="matrix(1.0486689,0.08995095,-0.08593013,1.0977379,-73.263356,-128.41092)" />
    <path
       sodipodi:type="star"
       style="fill:#ffffff;fill-opacity:1;fill-rule:evenodd;stroke:none"
       id="path8847"
       sodipodi:sides="5"
       sodipodi:cx="106.33333"
       sodipodi:cy="148"
       sodipodi:r1="6.1463628"
       sodipodi:r2="2.810354"
       sodipodi:arg1="-2.9229237"
       sodipodi:arg2="-2.2946052"
       inkscape:flatsided="false"
       inkscape:rounded="0"
       inkscape:randomized="0"
       d="m 100.33333,146.66667 4.13886,-0.77244 1.27511,-4.01259 2.01361,3.69759 4.21023,-0.0273 -2.89438,3.05767 1.32696,3.99575 -3.80244,-1.80785 -3.39013,2.49677 0.54435,-4.17499 z"
       transform="matrix(1.0486689,0.08995095,-0.08593013,1.0977379,-86.263356,-139.41092)" />
    <path
       sodipodi:type="star"
       style="fill:#ffffff;fill-opacity:1;fill-rule:evenodd;stroke:none"
       id="path8849"
       sodipodi:sides="5"
       sodipodi:cx="106.33333"
       sodipodi:cy="148"
       sodipodi:r1="6.1463628"
       sodipodi:r2="2.810354"
       sodipodi:arg1="-2.9229237"
       sodipodi:arg2="-2.2946052"
       inkscape:flatsided="false"
       inkscape:rounded="0"
       inkscape:randomized="0"
       d="m 100.33333,146.66667 4.13886,-0.77244 1.27511,-4.01259 2.01361,3.69759 4.21023,-0.0273 -2.89438,3.05767 1.32696,3.99575 -3.80244,-1.80785 -3.39013,2.49677 0.54435,-4.17499 z"
       transform="matrix(1.0486689,0.08995095,-0.08593013,1.0977379,-73.263356,-149.41092)" />
    <path
       sodipodi:type="star"
       style="fill:#ffffff;fill-opacity:1;fill-rule:evenodd;stroke:none"
       id="path8851"
       sodipodi:sides="5"
       sodipodi:cx="106.33333"
       sodipodi:cy="148"
       sodipodi:r1="6.1463628"
       sodipodi:r2="2.810354"
       sodipodi:arg1="-2.9229237"
       sodipodi:arg2="-2.2946052"
       inkscape:flatsided="false"
       inkscape:rounded="0"
       inkscape:randomized="0"
       d="m 100.33333,146.66667 4.13886,-0.77244 1.27511,-4.01259 2.01361,3.69759 4.21023,-0.0273 -2.89438,3.05767 1.32696,3.99575 -3.80244,-1.80785 -3.39013,2.49677 0.54435,-4.17499 z"
       transform="matrix(1.0486689,0.08995095,-0.08593013,1.0977379,-86.263356,-160.41092)" />
    <path
       sodipodi:type="star"
       style="fill:#ffffff;fill-opacity:1;fill-rule:evenodd;stroke:none"
       id="path8853"
       sodipodi:sides="5"
       sodipodi:cx="106.33333"
       sodipodi:cy="148"
       sodipodi:r1="6.1463628"
       sodipodi:r2="2.810354"
       sodipodi:arg1="-2.9229237"
       sodipodi:arg2="-2.2946052"
       inkscape:flatsided="false"
       inkscape:rounded="0"
       inkscape:randomized="0"
       d="m 100.33333,146.66667 4.13886,-0.77244 1.27511,-4.01259 2.01361,3.69759 4.21023,-0.0273 -2.89438,3.05767 1.32696,3.99575 -3.80244,-1.80785 -3.39013,2.49677 0.54435,-4.17499 z"
       transform="matrix(1.0486689,0.08995095,-0.08593013,1.0977379,-48.263355,-86.410922)" />
    <path
       sodipodi:type="star"
       style="fill:#ffffff;fill-opacity:1;fill-rule:evenodd;stroke:none"
       id="path8855"
       sodipodi:sides="5"
       sodipodi:cx="106.33333"
       sodipodi:cy="148"
       sodipodi:r1="6.1463628"
       sodipodi:r2="2.810354"
       sodipodi:arg1="-2.9229237"
       sodipodi:arg2="-2.2946052"
       inkscape:flatsided="false"
       inkscape:rounded="0"
       inkscape:randomized="0"
       d="m 100.33333,146.66667 4.13886,-0.77244 1.27511,-4.01259 2.01361,3.69759 4.21023,-0.0273 -2.89438,3.05767 1.32696,3.99575 -3.80244,-1.80785 -3.39013,2.49677 0.54435,-4.17499 z"
       transform="matrix(1.0486689,0.08995095,-0.08593013,1.0977379,-61.263355,-97.410922)" />
    <path
       sodipodi:type="star"
       style="fill:#ffffff;fill-opacity:1;fill-rule:evenodd;stroke:none"
       id="path8857"
       sodipodi:sides="5"
       sodipodi:cx="106.33333"
       sodipodi:cy="148"
       sodipodi:r1="6.1463628"
       sodipodi:r2="2.810354"
       sodipodi:arg1="-2.9229237"
       sodipodi:arg2="-2.2946052"
       inkscape:flatsided="false"
       inkscape:rounded="0"
       inkscape:randomized="0"
       d="m 100.33333,146.66667 4.13886,-0.77244 1.27511,-4.01259 2.01361,3.69759 4.21023,-0.0273 -2.89438,3.05767 1.32696,3.99575 -3.80244,-1.80785 -3.39013,2.49677 0.54435,-4.17499 z"
       transform="matrix(1.0486689,0.08995095,-0.08593013,1.0977379,-48.263355,-107.41092)" />
    <path
       sodipodi:type="star"
       style="fill:#ffffff;fill-opacity:1;fill-rule:evenodd;stroke:none"
       id="path8859"
       sodipodi:sides="5"
       sodipodi:cx="106.33333"
       sodipodi:cy="148"
       sodipodi:r1="6.1463628"
       sodipodi:r2="2.810354"
       sodipodi:arg1="-2.9229237"
       sodipodi:arg2="-2.2946052"
       inkscape:flatsided="false"
       inkscape:rounded="0"
       inkscape:randomized="0"
       d="m 100.33333,146.66667 4.13886,-0.77244 1.27511,-4.01259 2.01361,3.69759 4.21023,-0.0273 -2.89438,3.05767 1.32696,3.99575 -3.80244,-1.80785 -3.39013,2.49677 0.54435,-4.17499 z"
       transform="matrix(1.0486689,0.08995095,-0.08593013,1.0977379,-61.263355,-118.41092)" />
    <path
       sodipodi:type="star"
       style="fill:#ffffff;fill-opacity:1;fill-rule:evenodd;stroke:none"
       id="path8861"
       sodipodi:sides="5"
       sodipodi:cx="106.33333"
       sodipodi:cy="148"
       sodipodi:r1="6.1463628"
       sodipodi:r2="2.810354"
       sodipodi:arg1="-2.9229237"
       sodipodi:arg2="-2.2946052"
       inkscape:flatsided="false"
       inkscape:rounded="0"
       inkscape:randomized="0"
       d="m 100.33333,146.66667 4.13886,-0.77244 1.27511,-4.01259 2.01361,3.69759 4.21023,-0.0273 -2.89438,3.05767 1.32696,3.99575 -3.80244,-1.80785 -3.39013,2.49677 0.54435,-4.17499 z"
       transform="matrix(1.0486689,0.08995095,-0.08593013,1.0977379,-48.263355,-128.41092)" />
    <path
       sodipodi:type="star"
       style="fill:#ffffff;fill-opacity:1;fill-rule:evenodd;stroke:none"
       id="path8863"
       sodipodi:sides="5"
       sodipodi:cx="106.33333"
       sodipodi:cy="148"
       sodipodi:r1="6.1463628"
       sodipodi:r2="2.810354"
       sodipodi:arg1="-2.9229237"
       sodipodi:arg2="-2.2946052"
       inkscape:flatsided="false"
       inkscape:rounded="0"
       inkscape:randomized="0"
       d="m 100.33333,146.66667 4.13886,-0.77244 1.27511,-4.01259 2.01361,3.69759 4.21023,-0.0273 -2.89438,3.05767 1.32696,3.99575 -3.80244,-1.80785 -3.39013,2.49677 0.54435,-4.17499 z"
       transform="matrix(1.0486689,0.08995095,-0.08593013,1.0977379,-61.263355,-139.41092)" />
    <path
       sodipodi:type="star"
       style="fill:#ffffff;fill-opacity:1;fill-rule:evenodd;stroke:none"
       id="path8865"
       sodipodi:sides="5"
       sodipodi:cx="106.33333"
       sodipodi:cy="148"
       sodipodi:r1="6.1463628"
       sodipodi:r2="2.810354"
       sodipodi:arg1="-2.9229237"
       sodipodi:arg2="-2.2946052"
       inkscape:flatsided="false"
       inkscape:rounded="0"
       inkscape:randomized="0"
       d="m 100.33333,146.66667 4.13886,-0.77244 1.27511,-4.01259 2.01361,3.69759 4.21023,-0.0273 -2.89438,3.05767 1.32696,3.99575 -3.80244,-1.80785 -3.39013,2.49677 0.54435,-4.17499 z"
       transform="matrix(1.0486689,0.08995095,-0.08593013,1.0977379,-48.263355,-149.41092)" />
    <path
       sodipodi:type="star"
       style="fill:#ffffff;fill-opacity:1;fill-rule:evenodd;stroke:none"
       id="path8867"
       sodipodi:sides="5"
       sodipodi:cx="106.33333"
       sodipodi:cy="148"
       sodipodi:r1="6.1463628"
       sodipodi:r2="2.810354"
       sodipodi:arg1="-2.9229237"
       sodipodi:arg2="-2.2946052"
       inkscape:flatsided="false"
       inkscape:rounded="0"
       inkscape:randomized="0"
       d="m 100.33333,146.66667 4.13886,-0.77244 1.27511,-4.01259 2.01361,3.69759 4.21023,-0.0273 -2.89438,3.05767 1.32696,3.99575 -3.80244,-1.80785 -3.39013,2.49677 0.54435,-4.17499 z"
       transform="matrix(1.0486689,0.08995095,-0.08593013,1.0977379,-61.263356,-160.41092)" />
    <path
       sodipodi:type="star"
       style="fill:#ffffff;fill-opacity:1;fill-rule:evenodd;stroke:none"
       id="path8869"
       sodipodi:sides="5"
       sodipodi:cx="106.33333"
       sodipodi:cy="148"
       sodipodi:r1="6.1463628"
       sodipodi:r2="2.810354"
       sodipodi:arg1="-2.9229237"
       sodipodi:arg2="-2.2946052"
       inkscape:flatsided="false"
       inkscape:rounded="0"
       inkscape:randomized="0"
       d="m 100.33333,146.66667 4.13886,-0.77244 1.27511,-4.01259 2.01361,3.69759 4.21023,-0.0273 -2.89438,3.05767 1.32696,3.99575 -3.80244,-1.80785 -3.39013,2.49677 0.54435,-4.17499 z"
       transform="matrix(1.0486689,0.08995095,-0.08593013,1.0977379,-23.263355,-86.410922)" />
    <path
       sodipodi:type="star"
       style="fill:#ffffff;fill-opacity:1;fill-rule:evenodd;stroke:none"
       id="path8871"
       sodipodi:sides="5"
       sodipodi:cx="106.33333"
       sodipodi:cy="148"
       sodipodi:r1="6.1463628"
       sodipodi:r2="2.810354"
       sodipodi:arg1="-2.9229237"
       sodipodi:arg2="-2.2946052"
       inkscape:flatsided="false"
       inkscape:rounded="0"
       inkscape:randomized="0"
       d="m 100.33333,146.66667 4.13886,-0.77244 1.27511,-4.01259 2.01361,3.69759 4.21023,-0.0273 -2.89438,3.05767 1.32696,3.99575 -3.80244,-1.80785 -3.39013,2.49677 0.54435,-4.17499 z"
       transform="matrix(1.0486689,0.08995095,-0.08593013,1.0977379,-35.263355,-97.410922)" />
    <path
       sodipodi:type="star"
       style="fill:#ffffff;fill-opacity:1;fill-rule:evenodd;stroke:none"
       id="path8873"
       sodipodi:sides="5"
       sodipodi:cx="106.33333"
       sodipodi:cy="148"
       sodipodi:r1="6.1463628"
       sodipodi:r2="2.810354"
       sodipodi:arg1="-2.9229237"
       sodipodi:arg2="-2.2946052"
       inkscape:flatsided="false"
       inkscape:rounded="0"
       inkscape:randomized="0"
       d="m 100.33333,146.66667 4.13886,-0.77244 1.27511,-4.01259 2.01361,3.69759 4.21023,-0.0273 -2.89438,3.05767 1.32696,3.99575 -3.80244,-1.80785 -3.39013,2.49677 0.54435,-4.17499 z"
       transform="matrix(1.0486689,0.08995095,-0.08593013,1.0977379,14.736647,-97.410922)" />
    <path
       sodipodi:type="star"
       style="fill:#ffffff;fill-opacity:1;fill-rule:evenodd;stroke:none"
       id="path8875"
       sodipodi:sides="5"
       sodipodi:cx="106.33333"
       sodipodi:cy="148"
       sodipodi:r1="6.1463628"
       sodipodi:r2="2.810354"
       sodipodi:arg1="-2.9229237"
       sodipodi:arg2="-2.2946052"
       inkscape:flatsided="false"
       inkscape:rounded="0"
       inkscape:randomized="0"
       d="m 100.33333,146.66667 4.13886,-0.77244 1.27511,-4.01259 2.01361,3.69759 4.21023,-0.0273 -2.89438,3.05767 1.32696,3.99575 -3.80244,-1.80785 -3.39013,2.49677 0.54435,-4.17499 z"
       transform="matrix(1.0486689,0.08995095,-0.08593013,1.0977379,-10.263355,-97.410922)" />
    <path
       sodipodi:type="star"
       style="fill:#ffffff;fill-opacity:1;fill-rule:evenodd;stroke:none"
       id="path8877"
       sodipodi:sides="5"
       sodipodi:cx="106.33333"
       sodipodi:cy="148"
       sodipodi:r1="6.1463628"
       sodipodi:r2="2.810354"
       sodipodi:arg1="-2.9229237"
       sodipodi:arg2="-2.2946052"
       inkscape:flatsided="false"
       inkscape:rounded="0"
       inkscape:randomized="0"
       d="m 100.33333,146.66667 4.13886,-0.77244 1.27511,-4.01259 2.01361,3.69759 4.21023,-0.0273 -2.89438,3.05767 1.32696,3.99575 -3.80244,-1.80785 -3.39013,2.49677 0.54435,-4.17499 z"
       transform="matrix(1.0486689,0.08995095,-0.08593013,1.0977379,27.736645,-86.410922)" />
    <path
       sodipodi:type="star"
       style="fill:#ffffff;fill-opacity:1;fill-rule:evenodd;stroke:none"
       id="path8879"
       sodipodi:sides="5"
       sodipodi:cx="106.33333"
       sodipodi:cy="148"
       sodipodi:r1="6.1463628"
       sodipodi:r2="2.810354"
       sodipodi:arg1="-2.9229237"
       sodipodi:arg2="-2.2946052"
       inkscape:flatsided="false"
       inkscape:rounded="0"
       inkscape:randomized="0"
       d="m 100.33333,146.66667 4.13886,-0.77244 1.27511,-4.01259 2.01361,3.69759 4.21023,-0.0273 -2.89438,3.05767 1.32696,3.99575 -3.80244,-1.80785 -3.39013,2.49677 0.54435,-4.17499 z"
       transform="matrix(1.0486689,0.08995095,-0.08593013,1.0977379,2.7366446,-86.410922)" />
    <path
       sodipodi:type="star"
       style="fill:#ffffff;fill-opacity:1;fill-rule:evenodd;stroke:none"
       id="path8881"
       sodipodi:sides="5"
       sodipodi:cx="106.33333"
       sodipodi:cy="148"
       sodipodi:r1="6.1463628"
       sodipodi:r2="2.810354"
       sodipodi:arg1="-2.9229237"
       sodipodi:arg2="-2.2946052"
       inkscape:flatsided="false"
       inkscape:rounded="0"
       inkscape:randomized="0"
       d="m 100.33333,146.66667 4.13886,-0.77244 1.27511,-4.01259 2.01361,3.69759 4.21023,-0.0273 -2.89438,3.05767 1.32696,3.99575 -3.80244,-1.80785 -3.39013,2.49677 0.54435,-4.17499 z"
       transform="matrix(1.0486689,0.08995095,-0.08593013,1.0977379,-35.263355,-160.41092)" />
    <path
       sodipodi:type="star"
       style="fill:#ffffff;fill-opacity:1;fill-rule:evenodd;stroke:none"
       id="path8883"
       sodipodi:sides="5"
       sodipodi:cx="106.33333"
       sodipodi:cy="148"
       sodipodi:r1="6.1463628"
       sodipodi:r2="2.810354"
       sodipodi:arg1="-2.9229237"
       sodipodi:arg2="-2.2946052"
       inkscape:flatsided="false"
       inkscape:rounded="0"
       inkscape:randomized="0"
       d="m 100.33333,146.66667 4.13886,-0.77244 1.27511,-4.01259 2.01361,3.69759 4.21023,-0.0273 -2.89438,3.05767 1.32696,3.99575 -3.80244,-1.80785 -3.39013,2.49677 0.54435,-4.17499 z"
       transform="matrix(1.0486689,0.08995095,-0.08593013,1.0977379,-23.263355,-149.41092)" />
    <path
       sodipodi:type="star"
       style="fill:#ffffff;fill-opacity:1;fill-rule:evenodd;stroke:none"
       id="path8885"
       sodipodi:sides="5"
       sodipodi:cx="106.33333"
       sodipodi:cy="148"
       sodipodi:r1="6.1463628"
       sodipodi:r2="2.810354"
       sodipodi:arg1="-2.9229237"
       sodipodi:arg2="-2.2946052"
       inkscape:flatsided="false"
       inkscape:rounded="0"
       inkscape:randomized="0"
       d="m 100.33333,146.66667 4.13886,-0.77244 1.27511,-4.01259 2.01361,3.69759 4.21023,-0.0273 -2.89438,3.05767 1.32696,3.99575 -3.80244,-1.80785 -3.39013,2.49677 0.54435,-4.17499 z"
       transform="matrix(1.0486689,0.08995095,-0.08593013,1.0977379,-35.263355,-139.41092)" />
    <path
       sodipodi:type="star"
       style="fill:#ffffff;fill-opacity:1;fill-rule:evenodd;stroke:none"
       id="path8887"
       sodipodi:sides="5"
       sodipodi:cx="106.33333"
       sodipodi:cy="148"
       sodipodi:r1="6.1463628"
       sodipodi:r2="2.810354"
       sodipodi:arg1="-2.9229237"
       sodipodi:arg2="-2.2946052"
       inkscape:flatsided="false"
       inkscape:rounded="0"
       inkscape:randomized="0"
       d="m 100.33333,146.66667 4.13886,-0.77244 1.27511,-4.01259 2.01361,3.69759 4.21023,-0.0273 -2.89438,3.05767 1.32696,3.99575 -3.80244,-1.80785 -3.39013,2.49677 0.54435,-4.17499 z"
       transform="matrix(1.0486689,0.08995095,-0.08593013,1.0977379,-23.263355,-128.41092)" />
    <path
       sodipodi:type="star"
       style="fill:#ffffff;fill-opacity:1;fill-rule:evenodd;stroke:none"
       id="path8889"
       sodipodi:sides="5"
       sodipodi:cx="106.33333"
       sodipodi:cy="148"
       sodipodi:r1="6.1463628"
       sodipodi:r2="2.810354"
       sodipodi:arg1="-2.9229237"
       sodipodi:arg2="-2.2946052"
       inkscape:flatsided="false"
       inkscape:rounded="0"
       inkscape:randomized="0"
       d="m 100.33333,146.66667 4.13886,-0.77244 1.27511,-4.01259 2.01361,3.69759 4.21023,-0.0273 -2.89438,3.05767 1.32696,3.99575 -3.80244,-1.80785 -3.39013,2.49677 0.54435,-4.17499 z"
       transform="matrix(1.0486689,0.08995095,-0.08593013,1.0977379,-35.263355,-118.41092)" />
    <path
       sodipodi:type="star"
       style="fill:#ffffff;fill-opacity:1;fill-rule:evenodd;stroke:none"
       id="path8891"
       sodipodi:sides="5"
       sodipodi:cx="106.33333"
       sodipodi:cy="148"
       sodipodi:r1="6.1463628"
       sodipodi:r2="2.810354"
       sodipodi:arg1="-2.9229237"
       sodipodi:arg2="-2.2946052"
       inkscape:flatsided="false"
       inkscape:rounded="0"
       inkscape:randomized="0"
       d="m 100.33333,146.66667 4.13886,-0.77244 1.27511,-4.01259 2.01361,3.69759 4.21023,-0.0273 -2.89438,3.05767 1.32696,3.99575 -3.80244,-1.80785 -3.39013,2.49677 0.54435,-4.17499 z"
       transform="matrix(1.0486689,0.08995095,-0.08593013,1.0977379,-23.263355,-107.41092)" />
    <path
       sodipodi:type="star"
       style="fill:#ffffff;fill-opacity:1;fill-rule:evenodd;stroke:none"
       id="path8893"
       sodipodi:sides="5"
       sodipodi:cx="106.33333"
       sodipodi:cy="148"
       sodipodi:r1="6.1463628"
       sodipodi:r2="2.810354"
       sodipodi:arg1="-2.9229237"
       sodipodi:arg2="-2.2946052"
       inkscape:flatsided="false"
       inkscape:rounded="0"
       inkscape:randomized="0"
       d="m 100.33333,146.66667 4.13886,-0.77244 1.27511,-4.01259 2.01361,3.69759 4.21023,-0.0273 -2.89438,3.05767 1.32696,3.99575 -3.80244,-1.80785 -3.39013,2.49677 0.54435,-4.17499 z"
       transform="matrix(1.0486689,0.08995095,-0.08593013,1.0977379,40.736647,-97.410922)" />
    <path
       sodipodi:type="star"
       style="fill:#ffffff;fill-opacity:1;fill-rule:evenodd;stroke:none"
       id="path8895"
       sodipodi:sides="5"
       sodipodi:cx="106.33333"
       sodipodi:cy="148"
       sodipodi:r1="6.1463628"
       sodipodi:r2="2.810354"
       sodipodi:arg1="-2.9229237"
       sodipodi:arg2="-2.2946052"
       inkscape:flatsided="false"
       inkscape:rounded="0"
       inkscape:randomized="0"
       d="m 100.33333,146.66667 4.13886,-0.77244 1.27511,-4.01259 2.01361,3.69759 4.21023,-0.0273 -2.89438,3.05767 1.32696,3.99575 -3.80244,-1.80785 -3.39013,2.49677 0.54435,-4.17499 z"
       transform="matrix(1.0486689,0.08995095,-0.08593013,1.0977379,-10.263354,-118.41092)" />
    <path
       sodipodi:type="star"
       style="fill:#ffffff;fill-opacity:1;fill-rule:evenodd;stroke:none"
       id="path8897"
       sodipodi:sides="5"
       sodipodi:cx="106.33333"
       sodipodi:cy="148"
       sodipodi:r1="6.1463628"
       sodipodi:r2="2.810354"
       sodipodi:arg1="-2.9229237"
       sodipodi:arg2="-2.2946052"
       inkscape:flatsided="false"
       inkscape:rounded="0"
       inkscape:randomized="0"
       d="m 100.33333,146.66667 4.13886,-0.77244 1.27511,-4.01259 2.01361,3.69759 4.21023,-0.0273 -2.89438,3.05767 1.32696,3.99575 -3.80244,-1.80785 -3.39013,2.49677 0.54435,-4.17499 z"
       transform="matrix(1.0486689,0.08995095,-0.08593013,1.0977379,-10.263355,-160.41092)" />
    <path
       sodipodi:type="star"
       style="fill:#ffffff;fill-opacity:1;fill-rule:evenodd;stroke:none"
       id="path8899"
       sodipodi:sides="5"
       sodipodi:cx="106.33333"
       sodipodi:cy="148"
       sodipodi:r1="6.1463628"
       sodipodi:r2="2.810354"
       sodipodi:arg1="-2.9229237"
       sodipodi:arg2="-2.2946052"
       inkscape:flatsided="false"
       inkscape:rounded="0"
       inkscape:randomized="0"
       d="m 100.33333,146.66667 4.13886,-0.77244 1.27511,-4.01259 2.01361,3.69759 4.21023,-0.0273 -2.89438,3.05767 1.32696,3.99575 -3.80244,-1.80785 -3.39013,2.49677 0.54435,-4.17499 z"
       transform="matrix(1.0486689,0.08995095,-0.08593013,1.0977379,-10.263356,-139.41092)" />
    <path
       sodipodi:type="star"
       style="fill:#ffffff;fill-opacity:1;fill-rule:evenodd;stroke:none"
       id="path8901"
       sodipodi:sides="5"
       sodipodi:cx="106.33333"
       sodipodi:cy="148"
       sodipodi:r1="6.1463628"
       sodipodi:r2="2.810354"
       sodipodi:arg1="-2.9229237"
       sodipodi:arg2="-2.2946052"
       inkscape:flatsided="false"
       inkscape:rounded="0"
       inkscape:randomized="0"
       d="m 100.33333,146.66667 4.13886,-0.77244 1.27511,-4.01259 2.01361,3.69759 4.21023,-0.0273 -2.89438,3.05767 1.32696,3.99575 -3.80244,-1.80785 -3.39013,2.49677 0.54435,-4.17499 z"
       transform="matrix(1.0486689,0.08995095,-0.08593013,1.0977379,27.736647,-107.41092)" />
    <path
       sodipodi:type="star"
       style="fill:#ffffff;fill-opacity:1;fill-rule:evenodd;stroke:none"
       id="path8903"
       sodipodi:sides="5"
       sodipodi:cx="106.33333"
       sodipodi:cy="148"
       sodipodi:r1="6.1463628"
       sodipodi:r2="2.810354"
       sodipodi:arg1="-2.9229237"
       sodipodi:arg2="-2.2946052"
       inkscape:flatsided="false"
       inkscape:rounded="0"
       inkscape:randomized="0"
       d="m 100.33333,146.66667 4.13886,-0.77244 1.27511,-4.01259 2.01361,3.69759 4.21023,-0.0273 -2.89438,3.05767 1.32696,3.99575 -3.80244,-1.80785 -3.39013,2.49677 0.54435,-4.17499 z"
       transform="matrix(1.0486689,0.08995095,-0.08593013,1.0977379,2.7366468,-107.41092)" />
    <path
       sodipodi:type="star"
       style="fill:#ffffff;fill-opacity:1;fill-rule:evenodd;stroke:none"
       id="path8905"
       sodipodi:sides="5"
       sodipodi:cx="106.33333"
       sodipodi:cy="148"
       sodipodi:r1="6.1463628"
       sodipodi:r2="2.810354"
       sodipodi:arg1="-2.9229237"
       sodipodi:arg2="-2.2946052"
       inkscape:flatsided="false"
       inkscape:rounded="0"
       inkscape:randomized="0"
       d="m 100.33333,146.66667 4.13886,-0.77244 1.27511,-4.01259 2.01361,3.69759 4.21023,-0.0273 -2.89438,3.05767 1.32696,3.99575 -3.80244,-1.80785 -3.39013,2.49677 0.54435,-4.17499 z"
       transform="matrix(1.0486689,0.08995095,-0.08593013,1.0977379,2.7366443,-149.41092)" />
    <path
       sodipodi:type="star"
       style="fill:#ffffff;fill-opacity:1;fill-rule:evenodd;stroke:none"
       id="path8907"
       sodipodi:sides="5"
       sodipodi:cx="106.33333"
       sodipodi:cy="148"
       sodipodi:r1="6.1463628"
       sodipodi:r2="2.810354"
       sodipodi:arg1="-2.9229237"
       sodipodi:arg2="-2.2946052"
       inkscape:flatsided="false"
       inkscape:rounded="0"
       inkscape:randomized="0"
       d="m 100.33333,146.66667 4.13886,-0.77244 1.27511,-4.01259 2.01361,3.69759 4.21023,-0.0273 -2.89438,3.05767 1.32696,3.99575 -3.80244,-1.80785 -3.39013,2.49677 0.54435,-4.17499 z"
       transform="matrix(1.0486689,0.08995095,-0.08593013,1.0977379,2.7366465,-128.41092)" />
    <path
       sodipodi:type="star"
       style="fill:#ffffff;fill-opacity:1;fill-rule:evenodd;stroke:none"
       id="path8909"
       sodipodi:sides="5"
       sodipodi:cx="106.33333"
       sodipodi:cy="148"
       sodipodi:r1="6.1463628"
       sodipodi:r2="2.810354"
       sodipodi:arg1="-2.9229237"
       sodipodi:arg2="-2.2946052"
       inkscape:flatsided="false"
       inkscape:rounded="0"
       inkscape:randomized="0"
       d="m 100.33333,146.66667 4.13886,-0.77244 1.27511,-4.01259 2.01361,3.69759 4.21023,-0.0273 -2.89438,3.05767 1.32696,3.99575 -3.80244,-1.80785 -3.39013,2.49677 0.54435,-4.17499 z"
       transform="matrix(1.0486689,0.08995095,-0.08593013,1.0977379,40.736647,-118.41092)" />
    <path
       sodipodi:type="star"
       style="fill:#ffffff;fill-opacity:1;fill-rule:evenodd;stroke:none"
       id="path8911"
       sodipodi:sides="5"
       sodipodi:cx="106.33333"
       sodipodi:cy="148"
       sodipodi:r1="6.1463628"
       sodipodi:r2="2.810354"
       sodipodi:arg1="-2.9229237"
       sodipodi:arg2="-2.2946052"
       inkscape:flatsided="false"
       inkscape:rounded="0"
       inkscape:randomized="0"
       d="m 100.33333,146.66667 4.13886,-0.77244 1.27511,-4.01259 2.01361,3.69759 4.21023,-0.0273 -2.89438,3.05767 1.32696,3.99575 -3.80244,-1.80785 -3.39013,2.49677 0.54435,-4.17499 z"
       transform="matrix(1.0486689,0.08995095,-0.08593013,1.0977379,14.736644,-118.41092)" />
    <path
       sodipodi:type="star"
       style="fill:#ffffff;fill-opacity:1;fill-rule:evenodd;stroke:none"
       id="path8913"
       sodipodi:sides="5"
       sodipodi:cx="106.33333"
       sodipodi:cy="148"
       sodipodi:r1="6.1463628"
       sodipodi:r2="2.810354"
       sodipodi:arg1="-2.9229237"
       sodipodi:arg2="-2.2946052"
       inkscape:flatsided="false"
       inkscape:rounded="0"
       inkscape:randomized="0"
       d="m 100.33333,146.66667 4.13886,-0.77244 1.27511,-4.01259 2.01361,3.69759 4.21023,-0.0273 -2.89438,3.05767 1.32696,3.99575 -3.80244,-1.80785 -3.39013,2.49677 0.54435,-4.17499 z"
       transform="matrix(1.0486689,0.08995095,-0.08593013,1.0977379,14.736644,-160.41092)" />
    <path
       sodipodi:type="star"
       style="fill:#ffffff;fill-opacity:1;fill-rule:evenodd;stroke:none"
       id="path8915"
       sodipodi:sides="5"
       sodipodi:cx="106.33333"
       sodipodi:cy="148"
       sodipodi:r1="6.1463628"
       sodipodi:r2="2.810354"
       sodipodi:arg1="-2.9229237"
       sodipodi:arg2="-2.2946052"
       inkscape:flatsided="false"
       inkscape:rounded="0"
       inkscape:randomized="0"
       d="m 100.33333,146.66667 4.13886,-0.77244 1.27511,-4.01259 2.01361,3.69759 4.21023,-0.0273 -2.89438,3.05767 1.32696,3.99575 -3.80244,-1.80785 -3.39013,2.49677 0.54435,-4.17499 z"
       transform="matrix(1.0486689,0.08995095,-0.08593013,1.0977379,14.736644,-139.41092)" />
    <path
       sodipodi:type="star"
       style="fill:#ffffff;fill-opacity:1;fill-rule:evenodd;stroke:none"
       id="path8917"
       sodipodi:sides="5"
       sodipodi:cx="106.33333"
       sodipodi:cy="148"
       sodipodi:r1="6.1463628"
       sodipodi:r2="2.810354"
       sodipodi:arg1="-2.9229237"
       sodipodi:arg2="-2.2946052"
       inkscape:flatsided="false"
       inkscape:rounded="0"
       inkscape:randomized="0"
       d="m 100.33333,146.66667 4.13886,-0.77244 1.27511,-4.01259 2.01361,3.69759 4.21023,-0.0273 -2.89438,3.05767 1.32696,3.99575 -3.80244,-1.80785 -3.39013,2.49677 0.54435,-4.17499 z"
       transform="matrix(1.0486689,0.08995095,-0.08593013,1.0977379,40.736644,-160.41092)" />
    <path
       sodipodi:type="star"
       style="fill:#ffffff;fill-opacity:1;fill-rule:evenodd;stroke:none"
       id="path8919"
       sodipodi:sides="5"
       sodipodi:cx="106.33333"
       sodipodi:cy="148"
       sodipodi:r1="6.1463628"
       sodipodi:r2="2.810354"
       sodipodi:arg1="-2.9229237"
       sodipodi:arg2="-2.2946052"
       inkscape:flatsided="false"
       inkscape:rounded="0"
       inkscape:randomized="0"
       d="m 100.33333,146.66667 4.13886,-0.77244 1.27511,-4.01259 2.01361,3.69759 4.21023,-0.0273 -2.89438,3.05767 1.32696,3.99575 -3.80244,-1.80785 -3.39013,2.49677 0.54435,-4.17499 z"
       transform="matrix(1.0486689,0.08995095,-0.08593013,1.0977379,27.736644,-149.41092)" />
    <path
       sodipodi:type="star"
       style="fill:#ffffff;fill-opacity:1;fill-rule:evenodd;stroke:none"
       id="path8921"
       sodipodi:sides="5"
       sodipodi:cx="106.33333"
       sodipodi:cy="148"
       sodipodi:r1="6.1463628"
       sodipodi:r2="2.810354"
       sodipodi:arg1="-2.9229237"
       sodipodi:arg2="-2.2946052"
       inkscape:flatsided="false"
       inkscape:rounded="0"
       inkscape:randomized="0"
       d="m 100.33333,146.66667 4.13886,-0.77244 1.27511,-4.01259 2.01361,3.69759 4.21023,-0.0273 -2.89438,3.05767 1.32696,3.99575 -3.80244,-1.80785 -3.39013,2.49677 0.54435,-4.17499 z"
       transform="matrix(1.0486689,0.08995095,-0.08593013,1.0977379,40.736644,-139.41092)" />
    <path
       sodipodi:type="star"
       style="fill:#ffffff;fill-opacity:1;fill-rule:evenodd;stroke:none"
       id="path8923"
       sodipodi:sides="5"
       sodipodi:cx="106.33333"
       sodipodi:cy="148"
       sodipodi:r1="6.1463628"
       sodipodi:r2="2.810354"
       sodipodi:arg1="-2.9229237"
       sodipodi:arg2="-2.2946052"
       inkscape:flatsided="false"
       inkscape:rounded="0"
       inkscape:randomized="0"
       d="m 100.33333,146.66667 4.13886,-0.77244 1.27511,-4.01259 2.01361,3.69759 4.21023,-0.0273 -2.89438,3.05767 1.32696,3.99575 -3.80244,-1.80785 -3.39013,2.49677 0.54435,-4.17499 z"
       transform="matrix(1.0486689,0.08995095,-0.08593013,1.0977379,27.736644,-128.41092)" />
  </g>
  <g
     inkscape:groupmode="layer"
     id="layer7"
     inkscape:label="uk white background"
     style="display:inline"
     transform="translate(0.5,-0.5)">
    <path
       style="fill:#ffffff;stroke:none"
       d="M -0.44933204,200.44933 380.58426,1.8445567 379.6856,200.89867 z"
       id="path3835"
       inkscape:connector-curvature="0"
       sodipodi:nodetypes="cccc" />
  </g>
  <g
     inkscape:groupmode="layer"
     id="layer8"
     inkscape:label="UK blue"
     style="display:inline"
     transform="translate(0.5,-0.5)">
    <path
       style="fill:#00247d;stroke:none;display:inline"
       d="m 220.558,200.19741 -0.31953,-72.63888 158.64949,0.15886 0.22467,72.32116 z"
       id="path3839"
       inkscape:connector-curvature="0"
       sodipodi:nodetypes="ccccc" />
    <path
       style="fill:#00247d;stroke:none"
       d="m 379.0116,1.3952246 -128.9583,68.2984744 128.73363,0 z"
       id="path3843"
       inkscape:connector-curvature="0"
       sodipodi:nodetypes="cccc" />
    <path
       style="fill:#00247d;stroke:none"
       d="M -1.4253476e-8,200.22466 141.53961,126.53421 l 19.7706,0.22467 -0.44933,73.69045 z"
       id="path3845"
       inkscape:connector-curvature="0"
       sodipodi:nodetypes="ccccc" />
  </g>
  <g
     inkscape:groupmode="layer"
     id="layer9"
     inkscape:label="UK white n red stripes"
     style="display:inline"
     transform="translate(0.5,-0.5)">
    <path
       style="fill:#ffffff;stroke:none"
       d="m 379.85243,180.19859 -0.41083,19.5382 -33.12715,2.06053 -130.0238,-68.20266 1.4831,-9.51516 57.66755,1.57267 z"
       id="path3847"
       inkscape:connector-curvature="0"
       sodipodi:nodetypes="ccccccc" />
    <path
       style="fill:#ffffff;stroke:none;display:inline"
       d="M 380.13493,0.49656036 246.6833,71.491028 l 41.33856,0.898664 91.43907,-48.527863 z"
       id="path3855"
       inkscape:connector-curvature="0"
       sodipodi:nodetypes="ccccc" />
    <path
       style="fill:#ffffff;stroke:none;display:inline"
       d="M -0.44933207,199.55067 148.13863,123.19615 l 15.23213,0.58094 0.0545,14.497 L 46.803754,200 z"
       id="path3859"
       inkscape:connector-curvature="0"
       sodipodi:nodetypes="cccccc" />
    <path
       style="fill:#cf142b;stroke:none"
       d="M -0.67399812,199.77534 145.88534,124.24901 l 15.42487,0.0545 -0.44933,7.84735 L 31.453245,200 z"
       id="path4355"
       inkscape:connector-curvature="0"
       sodipodi:nodetypes="cccccc" />
    <path
       style="fill:#cf142b;stroke:none"
       d="m 238.146,125.41088 28.75725,0.89866 112.33301,60.2105 -0.44933,13.03063 z"
       id="path4357"
       inkscape:connector-curvature="0"
       sodipodi:nodetypes="ccccc" />
  </g>
  <g
     inkscape:groupmode="layer"
     id="layer3"
     inkscape:label="UK"
     style="display:inline"
     transform="translate(0.5,-0.5)">
    <path
       style="fill:#cf142b;stroke:none"
       d="m 378.96762,116.66487 -218.88539,-0.22466 72.58085,-37.174906 146.34093,0.290467 z"
       id="path3058"
       inkscape:connector-curvature="0"
       sodipodi:nodetypes="ccccc" />
    <path
       sodipodi:nodetypes="ccccc"
       inkscape:connector-curvature="0"
       id="path3060"
       d="m 209.2135,199.5392 0.44934,-107.533056 -37.86019,19.142436 0.0771,88.80264 z"
       style="fill:#cf142b;stroke:none" />
  </g>
  <g
     inkscape:label="bg_border"
     inkscape:groupmode="layer"
     id="layer1"
     style="display:inline"
     transform="translate(0.5,-0.5)">
    <rect
       style="fill:none;stroke:#000000;stroke-width:1;stroke-linecap:butt;stroke-linejoin:miter;stroke-miterlimit:4;stroke-opacity:1;stroke-dasharray:none;stroke-dashoffset:0"
       id="rect8764"
       width="379"
       height="199"
       x="0"
       y="1" />
  </g>
</svg>
